<svg width="219" height="34" viewBox="0 0 219 34" fill="none" xmlns="http://www.w3.org/2000/svg">
<mask id="mask0_1016_303" style="mask-type:alpha" maskUnits="userSpaceOnUse" x="0" y="0" width="40" height="34">
<mask id="mask1_1016_303" style="mask-type:luminance" maskUnits="userSpaceOnUse" x="0" y="0" width="41" height="34">
<path d="M40.12 0H0V34H40.12V0Z" fill="white"/>
</mask>
<g mask="url(#mask1_1016_303)">
<path d="M8.68047 31.3245C14.3575 33.9089 21.0546 31.4018 23.639 25.7248C26.2234 20.0478 23.7163 13.3506 18.0393 10.7663C12.3623 8.18191 5.66511 10.689 3.08075 16.366C0.496383 22.043 3.00347 28.7401 8.68047 31.3245Z" stroke="black" stroke-width="3"/>
<path d="M22.3397 23.6389C28.0167 26.2232 34.7138 23.7162 37.2982 18.0392C39.8825 12.3622 37.3755 5.66498 31.6985 3.08062C26.0215 0.496263 19.3243 3.00335 16.7399 8.68035C14.1556 14.3574 16.6627 21.0545 22.3397 23.6389Z" stroke="black" stroke-width="3"/>
</g>
</mask>
<g mask="url(#mask0_1016_303)">
<path d="M40.12 0H0V34H40.12V0Z" fill="url(#paint0_linear_1016_303)"/>
</g>
<path d="M51.8882 26V7.80003H59.1942C61.0836 7.80003 62.5222 8.24203 63.5102 9.12603C64.5156 9.9927 65.0182 11.1107 65.0182 12.48C65.0182 13.624 64.7062 14.5427 64.0822 15.236C63.4756 15.912 62.7302 16.3713 61.8462 16.614C62.8862 16.822 63.7442 17.342 64.4202 18.174C65.0962 18.9887 65.4342 19.942 65.4342 21.034C65.4342 22.4727 64.9142 23.66 63.8742 24.596C62.8342 25.532 61.3609 26 59.4542 26H51.8882ZM55.2162 15.444H58.7002C59.6362 15.444 60.3556 15.2273 60.8582 14.794C61.3609 14.3607 61.6122 13.7453 61.6122 12.948C61.6122 12.1853 61.3609 11.5873 60.8582 11.154C60.3729 10.7033 59.6362 10.478 58.6482 10.478H55.2162V15.444ZM55.2162 23.296H58.9342C59.9222 23.296 60.6849 23.0707 61.2222 22.62C61.7769 22.152 62.0542 21.502 62.0542 20.67C62.0542 19.8207 61.7682 19.1533 61.1962 18.668C60.6242 18.1827 59.8529 17.94 58.8822 17.94H55.2162V23.296ZM68.9666 11.102C68.3599 11.102 67.8572 10.92 67.4586 10.556C67.0772 10.192 66.8866 9.7327 66.8866 9.17803C66.8866 8.62336 67.0772 8.1727 67.4586 7.82603C67.8572 7.46203 68.3599 7.28003 68.9666 7.28003C69.5732 7.28003 70.0672 7.46203 70.4486 7.82603C70.8472 8.1727 71.0466 8.62336 71.0466 9.17803C71.0466 9.7327 70.8472 10.192 70.4486 10.556C70.0672 10.92 69.5732 11.102 68.9666 11.102ZM67.3026 26V13.104H70.6306V26H67.3026ZM73.0642 26V13.104H76.0022L76.2622 15.288C76.6609 14.5253 77.2329 13.9187 77.9782 13.468C78.7409 13.0173 79.6335 12.792 80.6562 12.792C82.2509 12.792 83.4902 13.2947 84.3742 14.3C85.2582 15.3053 85.7002 16.7787 85.7002 18.72V26H82.3722V19.032C82.3722 17.9227 82.1469 17.0733 81.6962 16.484C81.2455 15.8947 80.5435 15.6 79.5902 15.6C78.6542 15.6 77.8829 15.9293 77.2762 16.588C76.6869 17.2467 76.3922 18.1653 76.3922 19.344V26H73.0642ZM92.2886 26.312C91.1792 26.312 90.2692 26.1387 89.5586 25.792C88.8479 25.428 88.3192 24.9513 87.9726 24.362C87.6259 23.7727 87.4526 23.1227 87.4526 22.412C87.4526 21.216 87.9206 20.2453 88.8566 19.5C89.7926 18.7547 91.1966 18.382 93.0686 18.382H96.3446V18.07C96.3446 17.186 96.0932 16.536 95.5906 16.12C95.0879 15.704 94.4639 15.496 93.7186 15.496C93.0426 15.496 92.4532 15.6607 91.9506 15.99C91.4479 16.302 91.1359 16.77 91.0146 17.394H87.7646C87.8512 16.458 88.1632 15.6433 88.7006 14.95C89.2552 14.2567 89.9659 13.728 90.8326 13.364C91.6992 12.9827 92.6699 12.792 93.7446 12.792C95.5819 12.792 97.0292 13.2513 98.0866 14.17C99.1439 15.0887 99.6726 16.3887 99.6726 18.07V26H96.8386L96.5266 23.92C96.1452 24.6133 95.6079 25.1853 94.9146 25.636C94.2386 26.0867 93.3632 26.312 92.2886 26.312ZM93.0426 23.712C93.9959 23.712 94.7326 23.4 95.2526 22.776C95.7899 22.152 96.1279 21.3807 96.2666 20.462H93.4326C92.5486 20.462 91.9159 20.6267 91.5346 20.956C91.1532 21.268 90.9626 21.658 90.9626 22.126C90.9626 22.6287 91.1532 23.0187 91.5346 23.296C91.9159 23.5733 92.4186 23.712 93.0426 23.712ZM101.808 26V13.104H104.772L105.084 15.522C105.552 14.69 106.185 14.0313 106.982 13.546C107.797 13.0433 108.75 12.792 109.842 12.792V16.302H108.906C108.178 16.302 107.528 16.4147 106.956 16.64C106.384 16.8653 105.934 17.2553 105.604 17.81C105.292 18.3647 105.136 19.136 105.136 20.124V26H101.808ZM112.689 31.72L115.679 25.142H114.899L109.881 13.104H113.495L117.109 22.178L120.879 13.104H124.415L116.225 31.72H112.689ZM125.785 26V7.80003H127.969V15.834H137.407V7.80003H139.591V26H137.407V17.628H127.969V26H125.785ZM146.551 26.312C145.476 26.312 144.584 26.13 143.873 25.766C143.162 25.402 142.634 24.9167 142.287 24.31C141.94 23.7033 141.767 23.0447 141.767 22.334C141.767 21.0167 142.27 20.0027 143.275 19.292C144.28 18.5813 145.65 18.226 147.383 18.226H150.867V18.07C150.867 16.9433 150.572 16.094 149.983 15.522C149.394 14.9327 148.605 14.638 147.617 14.638C146.768 14.638 146.031 14.8547 145.407 15.288C144.8 15.704 144.419 16.3193 144.263 17.134H142.027C142.114 16.198 142.426 15.4093 142.963 14.768C143.518 14.1267 144.202 13.6413 145.017 13.312C145.832 12.9653 146.698 12.792 147.617 12.792C149.42 12.792 150.772 13.2773 151.673 14.248C152.592 15.2013 153.051 16.4753 153.051 18.07V26H151.101L150.971 23.686C150.607 24.414 150.07 25.038 149.359 25.558C148.666 26.0607 147.73 26.312 146.551 26.312ZM146.889 24.466C147.721 24.466 148.432 24.2493 149.021 23.816C149.628 23.3827 150.087 22.8193 150.399 22.126C150.711 21.4327 150.867 20.7047 150.867 19.942V19.916H147.565C146.282 19.916 145.372 20.1413 144.835 20.592C144.315 21.0253 144.055 21.5713 144.055 22.23C144.055 22.906 144.298 23.452 144.783 23.868C145.286 24.2667 145.988 24.466 146.889 24.466ZM155.287 31.72V13.104H157.263L157.471 15.236C157.887 14.612 158.477 14.0487 159.239 13.546C160.019 13.0433 161.007 12.792 162.203 12.792C163.486 12.792 164.604 13.0867 165.557 13.676C166.511 14.2653 167.247 15.0713 167.767 16.094C168.305 17.1167 168.573 18.278 168.573 19.578C168.573 20.878 168.305 22.0393 167.767 23.062C167.247 24.0673 166.502 24.8647 165.531 25.454C164.578 26.026 163.46 26.312 162.177 26.312C161.12 26.312 160.175 26.0953 159.343 25.662C158.529 25.2287 157.905 24.622 157.471 23.842V31.72H155.287ZM161.943 24.414C162.81 24.414 163.573 24.2147 164.231 23.816C164.89 23.4 165.41 22.828 165.791 22.1C166.173 21.372 166.363 20.5227 166.363 19.552C166.363 18.5813 166.173 17.732 165.791 17.004C165.41 16.276 164.89 15.7127 164.231 15.314C163.573 14.898 162.81 14.69 161.943 14.69C161.077 14.69 160.314 14.898 159.655 15.314C158.997 15.7127 158.477 16.276 158.095 17.004C157.714 17.732 157.523 18.5813 157.523 19.552C157.523 20.5227 157.714 21.372 158.095 22.1C158.477 22.828 158.997 23.4 159.655 23.816C160.314 24.2147 161.077 24.414 161.943 24.414ZM170.574 31.72V13.104H172.55L172.758 15.236C173.174 14.612 173.763 14.0487 174.526 13.546C175.306 13.0433 176.294 12.792 177.49 12.792C178.772 12.792 179.89 13.0867 180.844 13.676C181.797 14.2653 182.534 15.0713 183.054 16.094C183.591 17.1167 183.86 18.278 183.86 19.578C183.86 20.878 183.591 22.0393 183.054 23.062C182.534 24.0673 181.788 24.8647 180.818 25.454C179.864 26.026 178.746 26.312 177.464 26.312C176.406 26.312 175.462 26.0953 174.63 25.662C173.815 25.2287 173.191 24.622 172.758 23.842V31.72H170.574ZM177.23 24.414C178.096 24.414 178.859 24.2147 179.518 23.816C180.176 23.4 180.696 22.828 181.078 22.1C181.459 21.372 181.65 20.5227 181.65 19.552C181.65 18.5813 181.459 17.732 181.078 17.004C180.696 16.276 180.176 15.7127 179.518 15.314C178.859 14.898 178.096 14.69 177.23 14.69C176.363 14.69 175.6 14.898 174.942 15.314C174.283 15.7127 173.763 16.276 173.382 17.004C173 17.732 172.81 18.5813 172.81 19.552C172.81 20.5227 173 21.372 173.382 22.1C173.763 22.828 174.283 23.4 174.942 23.816C175.6 24.2147 176.363 24.414 177.23 24.414ZM185.86 31.72V13.104H187.836L188.044 15.236C188.46 14.612 189.049 14.0487 189.812 13.546C190.592 13.0433 191.58 12.792 192.776 12.792C194.058 12.792 195.176 13.0867 196.13 13.676C197.083 14.2653 197.82 15.0713 198.34 16.094C198.877 17.1167 199.146 18.278 199.146 19.578C199.146 20.878 198.877 22.0393 198.34 23.062C197.82 24.0673 197.074 24.8647 196.104 25.454C195.15 26.026 194.032 26.312 192.75 26.312C191.692 26.312 190.748 26.0953 189.916 25.662C189.101 25.2287 188.477 24.622 188.044 23.842V31.72H185.86ZM192.516 24.414C193.382 24.414 194.145 24.2147 194.804 23.816C195.462 23.4 195.982 22.828 196.364 22.1C196.745 21.372 196.936 20.5227 196.936 19.552C196.936 18.5813 196.745 17.732 196.364 17.004C195.982 16.276 195.462 15.7127 194.804 15.314C194.145 14.898 193.382 14.69 192.516 14.69C191.649 14.69 190.886 14.898 190.228 15.314C189.569 15.7127 189.049 16.276 188.668 17.004C188.286 17.732 188.096 18.5813 188.096 19.552C188.096 20.5227 188.286 21.372 188.668 22.1C189.049 22.828 189.569 23.4 190.228 23.816C190.886 24.2147 191.649 24.414 192.516 24.414ZM201.509 31.72L204.707 24.752H203.953L198.831 13.104H201.197L205.461 23.14L209.985 13.104H212.247L203.797 31.72H201.509ZM214.838 26.182C214.232 26.182 213.729 25.9913 213.33 25.61C212.949 25.2287 212.758 24.7693 212.758 24.232C212.758 23.6773 212.949 23.2093 213.33 22.828C213.729 22.4467 214.232 22.256 214.838 22.256C215.445 22.256 215.939 22.4467 216.32 22.828C216.719 23.2093 216.918 23.6773 216.918 24.232C216.918 24.7693 216.719 25.2287 216.32 25.61C215.939 25.9913 215.445 26.182 214.838 26.182Z" fill="#657EFA"/>
<defs>
<linearGradient id="paint0_linear_1016_303" x1="42.7469" y1="-6.97318e-06" x2="-3.33125" y2="5.35946" gradientUnits="userSpaceOnUse">
<stop stop-color="#7AD2FF"/>
<stop offset="0.489583" stop-color="#8A5CFF"/>
<stop offset="1" stop-color="#FF79B8"/>
</linearGradient>
</defs>
</svg>
